<svg width="88" height="15" viewBox="0 0 88 15" xmlns="http://www.w3.org/2000/svg"><title>brand</title><path d="M6.662 14.22c3.11 0 5.282-1.793 5.58-4.623H9.66c-.282 1.503-1.416 2.425-2.99 2.425-2.03 0-3.304-1.67-3.304-4.376 0-2.672 1.292-4.35 3.296-4.35 1.547 0 2.742 1.018 2.988 2.574h2.584c-.202-2.84-2.522-4.772-5.572-4.772C2.988 1.098.66 3.568.66 7.654c0 4.096 2.31 6.566 6.002 6.566zm11.28-.018c-2.847 0-4.667-1.828-4.667-4.922 0-3.05 1.846-4.904 4.667-4.904 2.822 0 4.667 1.846 4.667 4.904 0 3.103-1.82 4.922-4.668 4.922zm0-1.96C19.2 12.242 20 11.18 20 9.29c0-1.873-.81-2.954-2.058-2.954-1.248 0-2.065 1.08-2.065 2.953 0 1.89.8 2.952 2.065 2.952zM23.932 14h2.566V4.578h-2.566V14zm1.283-10.46c.773 0 1.37-.588 1.37-1.326 0-.747-.597-1.327-1.37-1.327-.774 0-1.37.58-1.37 1.327 0 .738.596 1.327 1.37 1.327zM28.163 14h2.567V8.595c0-1.222.73-2.066 1.88-2.066 1.152 0 1.732.702 1.732 1.933V14h2.566V7.927c0-2.206-1.177-3.525-3.27-3.525-1.45 0-2.443.686-2.944 1.855h-.052v-1.68h-2.48V14zm14.56-7.726c-1.126 0-1.935.853-2.023 2.03h4c-.053-1.203-.836-2.03-1.978-2.03zm2.012 4.843h2.355c-.28 1.846-1.97 3.085-4.298 3.085-2.9 0-4.64-1.854-4.64-4.87 0-3.005 1.757-4.956 4.543-4.956 2.743 0 4.474 1.854 4.474 4.72v.782h-6.496v.158c0 1.345.853 2.268 2.162 2.268.94 0 1.66-.466 1.9-1.187zm3.554-3.77c0 1.388.913 2.32 2.697 2.724l1.74.388c.844.202 1.16.466 1.16.94 0 .616-.588 1.002-1.564 1.002-1.02 0-1.643-.457-1.766-1.248h-2.505c.14 1.837 1.687 3.05 4.2 3.05 2.488 0 4.194-1.222 4.194-3.076 0-1.406-.765-2.153-2.655-2.575l-1.8-.386c-.827-.193-1.23-.51-1.23-.976 0-.606.58-1.01 1.467-1.01.95 0 1.555.466 1.608 1.22H56.2c-.036-1.827-1.574-3.022-3.938-3.022-2.417 0-3.973 1.178-3.973 2.97zm10.075-4.94v2.17h-1.327v1.935h1.327v4.948c0 1.837.862 2.575 3.077 2.575.518 0 .958-.044 1.22-.105v-1.89c-.157.026-.394.044-.623.044-.757 0-1.108-.343-1.108-1.063V6.513h1.74V4.578h-1.74v-2.17h-2.567zm7.383 11.698c.783 0 1.415-.632 1.415-1.415 0-.79-.632-1.415-1.415-1.415-.79 0-1.415.624-1.415 1.415 0 .783.624 1.415 1.415 1.415zm11.892-6.02c-.114-2.136-1.732-3.71-4.28-3.71-2.822 0-4.623 1.882-4.623 4.905 0 3.076 1.8 4.922 4.64 4.922 2.48 0 4.14-1.432 4.272-3.656h-2.392c-.158 1.028-.826 1.643-1.854 1.643-1.275 0-2.066-1.055-2.066-2.91 0-1.82.79-2.89 2.057-2.89 1.054 0 1.714.702 1.863 1.695h2.382zm5.572 6.117c-2.848 0-4.667-1.828-4.667-4.922 0-3.05 1.846-4.904 4.667-4.904 2.82 0 4.667 1.846 4.667 4.904 0 3.103-1.82 4.922-4.668 4.922zm0-1.96c1.257 0 2.057-1.063 2.057-2.953 0-1.873-.81-2.954-2.058-2.954-1.248 0-2.065 1.08-2.065 2.953 0 1.89.8 2.952 2.065 2.952z" fill="#FD1C40" fill-rule="evenodd"/></svg>