<svg width="1061" height="98" viewBox="0 0 1061 98" xmlns="http://www.w3.org/2000/svg"><title>brand</title><path d="M73.426 97.686c38.027 0 64.56-21.915 68.213-56.504h-31.583C106.62 59.552 92.762 70.83 73.533 70.83c-24.814 0-40.39-20.41-40.39-53.496 0-32.656 15.79-53.174 40.283-53.174 18.906 0 33.515 12.46 36.523 31.475h31.58c-2.47-34.697-30.83-58.33-68.104-58.33C28.523-62.695.056-32.51.056 17.44c0 50.06 28.253 80.246 73.37 80.246zm137.96-.215c-34.806 0-57.042-22.343-57.042-60.156 0-37.275 22.56-59.94 57.04-59.94 34.484 0 57.042 22.558 57.042 59.94 0 37.92-22.236 60.157-57.04 60.157zm0-23.954c15.36 0 25.136-12.998 25.136-36.094 0-22.88-9.883-36.094-25.137-36.094-15.254 0-25.244 13.213-25.244 36.094 0 23.096 9.776 36.094 25.245 36.094zM284.675 95h31.368V-20.156h-31.367V95zM300.36-32.832c9.453 0 16.758-7.197 16.758-16.22 0-9.132-7.305-16.22-16.758-16.22s-16.758 7.088-16.758 16.22c0 9.023 7.305 16.22 16.758 16.22zM336.484 95h31.367V28.936c0-14.932 8.917-25.245 22.99-25.245 14.07 0 21.16 8.595 21.16 23.634V95h31.368V20.77c0-26.96-14.394-43.075-39.96-43.075-17.725 0-29.864 8.38-35.987 22.666h-.643v-20.516h-30.293V95zM514.51.576c-13.75 0-23.63 10.42-24.706 24.815h48.877C538.038 10.675 528.477.577 514.51.577zm24.6 59.19h28.79c-3.438 22.558-24.063 37.705-52.53 37.705-35.45 0-56.718-22.665-56.718-59.51 0-36.74 21.484-60.587 55.537-60.587 33.515 0 54.677 22.666 54.677 57.686v9.56h-79.385v1.933c0 16.435 10.42 27.715 26.426 27.715 11.494 0 20.303-5.694 23.203-14.502zm43.536-46.084c0 16.972 11.172 28.36 32.98 33.3l21.27 4.727c10.31 2.47 14.178 5.692 14.178 11.493 0 7.52-7.197 12.246-19.12 12.246-12.462 0-20.09-5.587-21.593-15.255h-30.614c1.72 22.45 20.625 37.276 51.348 37.276 30.4 0 51.24-14.93 51.24-37.597 0-17.187-9.346-26.318-32.44-31.475l-22.023-4.726c-10.097-2.363-15.038-6.23-15.038-11.924 0-7.412 7.09-12.353 17.94-12.353 11.6 0 19.013 5.693 19.658 14.93h28.896c-.43-22.343-19.228-36.952-48.125-36.952-29.54 0-48.554 14.395-48.554 36.31zm123.243-60.37v26.532h-16.222V3.477h16.22v60.478c0 22.45 10.528 31.475 37.6 31.475 6.337 0 11.708-.537 14.93-1.29V71.046c-1.933.322-4.834.537-7.627.537-9.237 0-13.534-4.19-13.534-12.998V3.477h21.27v-23.633h-21.27V-46.69H705.89zm89.833 142.977c9.56 0 17.295-7.735 17.295-17.296 0-9.668-7.734-17.295-17.295-17.295-9.668 0-17.294 7.626-17.294 17.294 0 9.56 7.625 17.295 17.293 17.295zM935.83 22.704c-1.395-26.103-21.16-45.332-52.313-45.332-34.483 0-56.504 22.988-56.504 59.94 0 37.6 22.02 60.158 56.72 60.158 30.292 0 50.594-17.51 52.206-44.687h-29.22c-1.934 12.57-10.098 20.088-22.666 20.088-15.576 0-25.244-12.89-25.244-35.556 0-22.236 9.668-35.34 25.136-35.34 12.89 0 20.948 8.592 22.774 20.73h29.11zm67.707 74.766c-34.805 0-57.04-22.343-57.04-60.156 0-37.275 22.557-59.94 57.04-59.94 34.482 0 57.04 22.558 57.04 59.94 0 37.92-22.236 60.157-57.04 60.157zm0-23.954c15.36 0 25.136-12.998 25.136-36.094 0-22.88-9.882-36.094-25.136-36.094s-25.244 13.213-25.244 36.094c0 23.096 9.775 36.094 25.244 36.094z" fill="#182E8C" fill-rule="evenodd" opacity=".04"/></svg>