<svg width="28" height="28" viewBox="0 0 28 28" xmlns="http://www.w3.org/2000/svg"><title>twitter</title><g fill="none" fill-rule="evenodd"><rect fill="#182E8C" width="28" height="28" rx="14"/><path d="M22.004 9.537c-.588.263-1.222.438-1.884.516.678-.406 1.197-1.05 1.444-1.816-.634.375-1.338.65-2.084.797C18.88 8.396 18.027 8 17.083 8c-1.813 0-3.28 1.47-3.28 3.28 0 .257.027.507.083.748-2.728-.138-5.147-1.444-6.766-3.43-.28.483-.444 1.05-.444 1.65 0 1.137.578 2.143 1.46 2.73-.54-.016-1.045-.166-1.49-.41v.042c0 1.59 1.132 2.92 2.635 3.22-.274.074-.565.115-.865.115-.212 0-.416-.022-.62-.06.42 1.304 1.632 2.254 3.067 2.282-1.125.88-2.538 1.406-4.078 1.406-.266 0-.525-.016-.784-.047C7.456 20.46 9.18 21 11.034 21c6.037 0 9.34-5.002 9.34-9.34 0-.144-.002-.284-.008-.425.64-.46 1.197-1.038 1.637-1.697z" fill="#FFF" fill-rule="nonzero"/></g></svg>